<?xml version="1.0" standalone="no"?><!DOCTYPE svg PUBLIC "-//W3C//DTD SVG 1.1//EN" "http://www.w3.org/Graphics/SVG/1.1/DTD/svg11.dtd"><svg t="1599111832967" class="icon" viewBox="0 0 1024 1024" version="1.1" xmlns="http://www.w3.org/2000/svg" p-id="4277" width="48" height="48" xmlns:xlink="http://www.w3.org/1999/xlink"><defs><style type="text/css"></style></defs><path d="M985.656785 320.093091h-474.065454c-105.937455-0.116364-191.930182 85.597091-192.023273 191.441454a191.674182 191.674182 0 0 0 24.482909 93.882182L107.01824 199.144727C279.655331-24.064 600.772422-65.210182 824.213876 107.264a510.789818 510.789818 0 0 1 161.442909 212.829091z m0 0" fill="#F44336" p-id="4278"></path><path d="M1023.172422 511.720727c-0.232727 282.135273-229.143273 510.789818-511.581091 511.022546a455.819636 455.819636 0 0 1-63.953455-4.258909l230.213819-410.949819a192 192 0 0 0-70.330182-261.911272 190.208 190.208 0 0 0-95.488-25.553455h473.646545a503.901091 503.901091 0 0 1 37.492364 191.650909z m0 0" fill="#FFC107" p-id="4279"></path><path d="M677.851695 607.534545l-230.213819 410.949819h-0.418909C167.085149 983.133091-31.338124 727.621818 4.059695 447.767273A510.370909 510.370909 0 0 1 107.01824 199.144727l237.032727 406.272 1.28 2.141091c52.852364 91.741091 170.146909 123.275636 261.957818 70.469818a191.627636 191.627636 0 0 0 70.56291-70.493091z m0 0" fill="#4CAF50" p-id="4280"></path><path d="M677.851695 607.534545c-52.852364 91.741091-170.146909 123.275636-261.957819 70.469819a191.906909 191.906909 0 0 1-70.562909-70.469819l-1.28-2.14109a191.534545 191.534545 0 0 1 73.565091-260.864 191.767273 191.767273 0 0 1 93.975273-24.459637h0.418909a190.138182 190.138182 0 0 1 95.488 25.553455 192 192 0 0 1 70.353455 261.911272z m0 0" fill="#2196F3" p-id="4281"></path><path d="M510.869876 724.642909a211.479273 211.479273 0 0 1-105.844363-28.369454 213.876364 213.876364 0 0 1-78.149818-78.103273c-58.856727-101.841455-23.924364-232.075636 78.010181-290.862546a213.294545 213.294545 0 0 1 106.705455-28.532363c117.713455-0.093091 213.224727 95.162182 213.317818 212.759272a212.875636 212.875636 0 0 1-28.555636 106.635637 214.341818 214.341818 0 0 1-185.483637 106.472727z m1.117091-383.255273a170.402909 170.402909 0 0 0-85.736727 318.045091 170.752 170.752 0 0 0 233.099636-62.510545 170.263273 170.263273 0 0 0-62.417454-232.704 170.752 170.752 0 0 0-84.922182-22.830546h-0.023273z m0 0" fill="#FAFAFA" p-id="4282"></path></svg>