<?xml version="1.0" standalone="no"?><!DOCTYPE svg PUBLIC "-//W3C//DTD SVG 1.1//EN" "http://www.w3.org/Graphics/SVG/1.1/DTD/svg11.dtd"><svg t="1599129740432" class="icon" viewBox="0 0 1427 1024" version="1.1" xmlns="http://www.w3.org/2000/svg" p-id="3589" xmlns:xlink="http://www.w3.org/1999/xlink" width="66.890625" height="48"><defs><style type="text/css"></style></defs><path d="M973.5259926 990.66202062c-14.04878063 0-30.10452937-4.01393719-44.15331001-11.37282187l-208.05574874-104.36236969L511.25421604 979.28919875c-13.37979094 7.35888469-28.76655094 10.70383313-44.15331 10.70383219-20.06968687 0-39.47038312-6.02090625-56.1951225-18.06271781-29.43553969-22.076655-44.15331-60.20905969-37.463415-94.99651501l42.81533156-222.77351906-163.90243875-153.19860656c-25.4216025-26.09059219-35.45644594-62.8850175-25.42160344-97.67247375l0.66898969-1.33797938c12.04181156-36.12543562 41.47735219-60.87804844 77.6027878-65.56097531l228.12543564-41.47735219 102.35540061-208.05574875c16.72473844-32.78048812 50.17421625-54.18815344 85.6306622-54.18815343 36.79442531 0 71.58188156 22.076655 85.63066124 54.85714312l102.35540063 207.38675906 228.12543563 40.13937282c36.12543562 5.35191656 66.229965 31.44250875 76.26480844 66.229965 11.37282187 34.78745625 2.00696906 72.25087125-24.08362313 98.34146343l-0.66898969 0.66898969-163.90243876 154.53658594 41.47735126 222.77351906c6.68989594 35.45644594-7.35888469 71.58188156-36.79442438 94.32752531-16.05574875 12.04181156-36.12543562 19.40069719-56.19512249 18.7317075z" fill="#ffda33" p-id="3590"></path></svg>