<?xml version="1.0" standalone="no"?><!DOCTYPE svg PUBLIC "-//W3C//DTD SVG 1.1//EN" "http://www.w3.org/Graphics/SVG/1.1/DTD/svg11.dtd"><svg t="1599127810561" class="icon" viewBox="0 0 4341 1024" version="1.1" xmlns="http://www.w3.org/2000/svg" p-id="2688" xmlns:xlink="http://www.w3.org/1999/xlink" width="203.484375" height="48"><defs><style type="text/css"></style></defs><path d="M1139.712 744.73472c80.11776 29.32736 247.1936 58.49088 382.32064 58.49088 145.57184 0 226.63168-40.38656 233.10336-103.05536 5.89824-57.18016-53.6576-64.9216-218.112-103.91552-227.16416-55.78752-372.1216-142.1312-357.90848-280.1664 16.50688-160.23552 230.6048-281.35424 559.104-281.35424 160.1536 0 315.43296 11.30496 395.8784 37.72416l-27.60704 202.05568c-52.224-18.18624-252.14976-43.4176-387.35872-43.4176-137.09312 0-208.0768 43.17184-212.992 90.5216-6.144 59.96544 65.1264 62.75072 243.17952 110.22336 241.17248 61.27616 346.64448 147.57888 332.84096 281.3952-16.1792 157.40928-208.81408 291.2256-593.42848 291.2256-160.11264 0-298.10688-29.2864-374.12864-58.53184l25.10848-201.19552z m-168.3456 226.63168c-52.38784 18.18624-160.89088 30.59712-312.48384 30.59712-435.97824 0-671.29344-205.0048-643.4816-475.9552C48.7424 203.03872 397.312 21.38112 779.0592 21.38112c147.8656 0 234.86464 11.91936 316.416 31.9488l-26.17344 217.4976c-54.23104-18.30912-181.37088-35.10272-284.2624-35.10272-224.58368 0-415.3344 67.01056-437.20704 278.97856-19.49696 189.56288 114.40128 280.1664 367.04256 280.1664 87.94112 0 217.62048-12.61568 277.54496-30.84288l-21.01248 207.29856z m2428.55936-886.3744c875.76576-165.39648 951.33696 131.80928 924.2624 394.77248l-50.9952 486.52288H3995.2384l46.53056-443.71968c10.07616-97.73056 72.704-288.84992-229.66272-281.68192-104.6528 2.53952-156.54912 16.91648-156.54912 16.91648s-9.09312 118.08768-20.0704 205.33248l-52.75648 503.15264h-272.62976l54.10816-495.90272 35.75808-385.39264z m-1106.1248-23.01952c62.50496-6.79936 158.5152-13.7216 290.6112-13.7216 220.5696 0 398.9504 38.5024 509.3376 119.31648 99.16416 75.40736 165.15072 197.46816 146.88256 374.3744-16.87552 164.53632-102.27712 279.7568-226.67264 351.0272-113.78688 67.21536-257.18784 95.92832-472.80128 95.92832-127.13984 0-248.4224-6.88128-340.66432-20.56192l93.30688-906.36288z m182.272 726.2208c21.2992 4.13696 49.19296 8.23296 104.32512 8.23296 220.65152 0 376.2176-108.62592 391.86432-261.3248 22.69184-220.73344-115.3024-297.94304-347.7504-296.5504-30.14656 0-72.00768 0-94.16704 4.01408l-54.272 545.62816z" fill="#000000" p-id="2689"></path></svg>