<?xml version="1.0" standalone="no"?><!DOCTYPE svg PUBLIC "-//W3C//DTD SVG 1.1//EN" "http://www.w3.org/Graphics/SVG/1.1/DTD/svg11.dtd"><svg t="1599112100873" class="icon" viewBox="0 0 1024 1024" version="1.1" xmlns="http://www.w3.org/2000/svg" p-id="7706" xmlns:xlink="http://www.w3.org/1999/xlink" width="48" height="48"><defs><style type="text/css"></style></defs><path d="M512 42.67c258.79 0 469.33 210.54 469.33 469.33S770.79 981.33 512 981.33 42.67 770.79 42.67 512 253.21 42.67 512 42.67M512 0C229.23 0 0 229.23 0 512s229.23 512 512 512 512-229.23 512-512S794.77 0 512 0z" fill="#1afa29" p-id="7707"></path><path d="M268.13 608.75H154.5V415.13h41.25V575h72.37zM275.25 514.5q0-45.5 26.56-74.06T372 411.88q41.5 0 66.81 27.63t25.31 71q0 45.25-26.31 73.44t-68.94 28.19q-41.62 0-67.62-27.31t-26-70.33z m43.38-2.25q0 28.25 13.63 46.19t37.38 17.94q24.25 0 37.75-17.19T420.88 513q0-30.25-13.12-47.81t-37-17.56q-24.25 0-38.19 18t-13.94 46.62zM654.25 595.75q-28.37 16.37-69.75 16.38-46.25 0-73-26T484.75 515q0-45.75 29.44-74.44t77.56-28.69q31 0 54.13 8.75v39.13q-22.5-13.12-55-13.12-28 0-45.37 18.25T528.13 513q0 30.38 15.69 47.38t42.81 17q16.13 0 26.38-5v-39.75h-39.13V499.5h80.38zM680.63 514.5q0-45.5 26.56-74.06t70.19-28.56q41.5 0 66.81 27.63t25.31 71q0 45.25-26.31 73.44t-68.94 28.19q-41.62 0-67.62-27.31t-26-70.33z m43.37-2.25q0 28.25 13.63 46.19T775 576.38q24.25 0 37.75-17.19t13.5-46.19q0-30.25-13.12-47.81t-37-17.56q-24.25 0-38.19 18T724 512.25z" fill="#1afa29" p-id="7708"></path></svg>