<?xml version="1.0" standalone="no"?><!DOCTYPE svg PUBLIC "-//W3C//DTD SVG 1.1//EN" "http://www.w3.org/Graphics/SVG/1.1/DTD/svg11.dtd"><svg t="1596824146288" class="icon" viewBox="0 0 1024 1024" version="1.1" xmlns="http://www.w3.org/2000/svg" p-id="1787" xmlns:xlink="http://www.w3.org/1999/xlink" width="200" height="200"><defs><style type="text/css"></style></defs><path d="M1008.736 239.008l-39.712 79.264s-17.056-31.488-33.92-45.92c-16.096-13.728-36.864-26.464-63.136-23.712-25.472 2.656-54.176 25.056-73.472 62.304-21.888 42.4-29.344 85.376-29.536 132.768-0.224 66.4 24.32 111.712 24.32 111.712s-5.632-21.088-4.704-56.736c0.608-22.176 0.736-46.464 17.504-96.48 14.08-41.824 46.24-75.744 74.656-81.568 22.048-4.576 36.128-1.28 57.856 14.048 25.728 18.144 41.216 50.912 41.216 50.912l40.352-77.216zM0 242.08l160.864 542.848h6.656l100.512-336.48 100.576 336.48h6.688l137.728-464.864 6.496-11.008h113.28l-93.856 162.208v32.16h26.848c34.4 0 59.648 10.496 75.744 31.488 13.824 17.92 20.768 43.136 20.768 75.776 0 29.472-6.496 54.752-19.424 75.744-12.96 20.992-28.832 31.488-47.616 31.488a67.296 67.296 0 0 1-46.592-17.76c-13.152-11.808-23.776-28.032-31.84-48.608l-54.944 22.784c11.136 33.952 28.384 60.896 51.616 80.768 23.2 19.872 50.464 29.824 81.76 29.824 41.568 0 75.392-16.768 101.536-50.272S736 659.808 736 610.656c0-39.776-8.96-74.368-26.784-103.904-17.92-29.44-44.256-49.792-79.104-61.024l99.232-170.912V241.952h-263.552L368.64 572.448 271.456 241.984h-70.4l32.16 107.904-65.696 222.496L70.4 241.984z m744.096 378.88s9.952 32.224 16.16 45.92c3.584 7.904 14.592 32 30.208 52.896 14.56 19.616 42.848 53.248 85.792 60.832 43.008 7.584 72.544-11.68 79.84-16.384a218.176 218.176 0 0 0 32.48-28.032c10.208-10.88 19.84-24.736 25.184-33.056 3.872-6.112 10.24-18.432 10.24-18.432l-10.272-53.536s-17.824 31.904-28.928 44.192c-11.136 12.288-31.008 33.888-55.552 44.704-24.576 10.784-37.408 12.896-61.696 10.528-24.288-2.304-46.816-16.352-54.688-22.176-7.904-5.888-28.064-23.136-39.456-39.264-11.424-16.032-29.28-48.224-29.28-48.224z" fill="#005A9C" p-id="1788"></path></svg>