<?xml version="1.0" standalone="no"?><!DOCTYPE svg PUBLIC "-//W3C//DTD SVG 1.1//EN" "http://www.w3.org/Graphics/SVG/1.1/DTD/svg11.dtd"><svg t="1596871108222" class="icon" viewBox="0 0 1028 1024" version="1.1" xmlns="http://www.w3.org/2000/svg" p-id="3461" xmlns:xlink="http://www.w3.org/1999/xlink" width="200.78125" height="200"><defs><style type="text/css"></style></defs><path d="M44.4 72.5c7.6-4.9 16.4-6.4 25.3-6.4h0.6c3.8 0 7.7 0.3 11.4 0.7 12.9 2.6 24.4 9.7 34.7 17.6 12.3 10 21.8 23 32.2 34.8 17.6 20.2 35.6 40.1 55.8 57.8 8.7 7.2 16.4 15.5 25.9 21.7 20.7 15 43.8 26.3 68.4 33.4 12.9 4.6 26.5 5.8 40 7.3 20.6 0.3 41.3 0 61.9 0.1 96.8 0 193.6 0.1 290.5-0.1 22.7-1.8 45.8-4.7 67.1-13.1 19.5-6.8 38.8-15.1 55.6-27.3 7.6-5.4 15.5-10.2 22.6-16.2 15.6-13.6 31.1-27.4 44.6-43.2 4.6-5.3 9.9-9.8 14.3-15.3 10.6-13.9 20-28.9 33.4-40.3 7.9-6.5 16.4-13.1 26.8-15 11-2.6 23.2-0.9 32.4 5.9 10.9 7.9 18.2 19.7 23.7 31.8 5.7 11.8 8.1 24.8 10.9 37.4 3.1 13.3 3.8 27 5.8 40.5 0.8 22.4 0.5 44.7 0.5 67.1v162.6c0 4.5 0 9.1 0.1 13.6v6.4c-0.1 10.4-0.7 20.9-3.3 31-4 16.2-9.9 33.5-23.7 44-16.3 13.8-38.6 16-59.1 17.6-74.9 0.1-149.8 0.1-224.6-0.1-14.7-0.1-29.6 0.3-44.1 2.9-18.7 4-38 10.9-50.8 25.8-9.8 10-13 24.1-15.2 37.4-1 8.8-0.3 17.7-0.5 26.5 0.4 13.3-2.2 26.6-0.1 39.8 0.3 3.8 4.2 5.5 7.1 7.2 28.8 14.1 57.3 28.7 86 43 15.3 9.1 31.8 15.8 47.1 24.7 7.5 4.2 17.4 6.1 21.4 14.5 0.7 4.3-2 8.3-4.9 11.2-3.9 3.9-9.9 2.4-14.8 1.8-11.9-2.8-23.9-4.3-35.9-6.7-9.3-1.7-18.6-4.1-28-5.5-13.1-1.8-26-5.1-39-7.3-13.3-2.3-26.2-6.9-39.8-7 0.2 18.7-0.6 37.4 0.8 56v174.3H420.6V740.8c0.5-2.7-1.3-6-4.4-5.4-28.1 5.3-56 11.3-84.1 16.1-17.6 3.9-35.5 6.3-53.1 10.1-3.7 0.6-7.5 1-11.2 0.2-6.4-2.4-11.4-11.2-6.4-17.1 4.7-4.6 11.1-6.9 16.8-9.9 38.8-19.5 77.7-38.7 116.5-58.2 7.7-3.9 15.6-7.3 23-11.8 3.5-1.7 2.7-5.9 2.9-9.1-0.1-15.9-0.1-31.9-0.1-47.8-0.1-9.9 0.9-20.1-2.4-29.7-5-18.2-19-33.6-36.7-40.2-9.1-3.6-18.5-6.5-28-8.5-18.5-3.2-37.4-2.6-56.1-2.6-68.8 0.2-137.7 0-206.5 0.1-17.5-0.9-35.6-1.9-51.5-9.8-7.7-4.3-14.8-9.9-20.6-16.5C8.9 488.9 4.8 473.6 2 458.8c-1.6-6.1-2-12.4-2-18.7v-1.5c0-3.8 0.1-7.6 0.1-11.4V192.3C0 180.6 3.4 169.2 4 157.5c3.1-20.6 7.2-41.6 17.8-59.8 5.4-10 13.2-18.8 22.6-25.2z m130.1 179.6c-15.7 4.5-31 11-43.8 21.3-24.4 19.6-41.2 49.6-42.1 81.1-1.6 10 0.4 20 1.1 29.9 3.1 19.8 12.6 38.3 25.6 53.5 11.8 14.4 28.1 24.4 45.1 31.5 9.9 3.4 20 7.2 30.7 6.5-2-5-5.9-8.9-8.3-13.7-8.8-15.8-11.6-33.9-15-51.4-1.6-7.3-0.5-14.9-2.1-22.3-0.7-16.8-0.5-33.6-0.1-50.3 1.4-8.9 0.8-17.9 3.2-26.7 2.7-17 7-34.2 15.9-49.1 2.3-3.8 5-7.3 7-11.2-5.9-0.4-11.7-0.7-17.2 0.9z m663.4-2v0.2c3.7 3.2 5.9 7.8 8.6 11.8 8 15.3 10.9 32.4 14.8 49 2.2 7.5 0.7 15.4 2.2 23.1 0.4 17.6 0.3 35.3 0 53-1.2 6.2-0.5 12.5-1.3 18.7-3.3 16.5-6.4 33.3-13 49l-0.1 0.3-0.1 0.3c-2 4.6-5.2 8.6-8 12.8l-0.2 0.3-0.4 0.6-0.2 0.3-0.2 0.3-0.2 0.3-0.2 0.3-0.2 0.3-0.2 0.3-0.2 0.3-0.2 0.3-0.2 0.3-0.2 0.3-0.4 2.8-0.2 0.3-0.2 0.3-0.2 0.3c3.1 0 6.3 0.2 9.5-0.2 18.6-3.7 36.5-11.2 51.3-23.2 15.4-12 27.3-28.2 34.7-46.3 3.6-9.8 7.3-20 6.8-30.7 0.6-8.6 2-17.3 0.4-25.8-1.8-24.8-14-48.1-30.9-66-12.2-14.1-29-23.1-46.3-29.1-8-3-16.5-4.3-25-4.5z m-43.5 55l0.1-0.5 0.2-1 0.1-0.5 0.1-0.5 0.1-0.5 0.1-0.5 0.1-0.5 0.1-0.5 0.1-0.5 0.1-0.5 0.1-0.5 0.1-0.5 0.1-0.5 0.1-0.5 0.1-0.5 0.1-0.5 0.1-0.5 0.1-0.5 0.1-0.5 0.1-0.5 0.1-0.5 0.1-0.5 0.1-0.5 0.1-0.5 0.1-0.5 0.1-0.5 0.1-0.5 0.1-0.5 0.1-0.5c2.4-10.4 6.1-20.6 12.2-29.5 2-2.9 3.9-5.9 5.4-9.1h-0.3c-4.8-0.3-9.7-0.1-14.4 0.9l-0.3 0.1-0.3 0.1-0.3 0.1-0.3 0.1-0.3 0.1-0.3 0.1-0.3 0.1-0.3 0.1-0.3 0.1-0.3 0.1-0.3 0.1-0.3 0.1-0.3 0.1c-15.7 4.8-30.9 12-43.7 22.5l-0.4 0.3-0.4 0.3-0.4 0.3-0.4 0.3-0.4 0.3-0.4 0.3-0.4 0.3-0.4 0.3c-7.1 6.5-13.6 13.7-19.1 21.6-5.2 8-9.3 16.7-12.9 25.5-4.1 10.2-4.8 21.3-6.1 32.1-0.5 10.8 0.9 21.5 2.7 32.1 4.6 20.2 15.2 38.8 29.5 53.7 14.1 13.9 31.8 24.4 51.1 29.4 6.8 2.3 13.8 4 21 3.1-3.4-5.1-7.7-9.7-10.4-15.3-4.8-10.1-7.6-21-10.2-31.9-4.7-15.2-4.3-31.2-6.3-46.8-0.5-11.8-0.4-23.7 0-35.5 1.3-7.8 0.8-15.8 2.2-23.7v-5l0.1-0.5 0.1-0.5 0.1-0.5 0.1-0.5 0.1-0.5 0.1-0.5 0.1-0.5 0.1-0.5 0.1-0.5 0.1-0.5 0.1-0.5c0.1-0.9 0.3-1.7 0.5-2.6 1.2-2 1.5-3.4 1.8-4.7z m-581.5-54l-0.6 0.1c3.3 6.6 8.6 12 11.5 18.9 8.7 22 13.9 45.6 13.8 69.4 1.8 11.9 0.8 24.1 1 36.2 0.4 7.8-1.6 15.4-1.2 23.3-2.3 21-6 42.1-15 61.4-2.7 5.4-6.8 10.1-9.5 15.5 9.3 1.3 18.1-2.2 26.8-5 23.9-8.5 45.3-24.4 59-45.9 11.3-18.1 17.9-39.4 17.3-60.9 0-0.7 0.1-1.4 0.1-2.1v-4.2c0-0.7 0-1.4-0.1-2.1 0-0.7-0.1-1.4-0.1-2.1 0-0.7-0.1-1.4-0.2-2.1-0.1-0.7-0.1-1.4-0.2-2.1-0.1-0.7-0.2-1.4-0.2-2.1l-0.3-2.1c-0.1-0.7-0.2-1.4-0.3-2-0.1-0.7-0.2-1.4-0.4-2-0.1-0.7-0.3-1.4-0.4-2-0.1-0.7-0.3-1.3-0.4-2-0.2-0.7-0.3-1.3-0.5-2s-0.3-1.3-0.5-2-0.4-1.3-0.6-2c-0.2-0.7-0.4-1.3-0.6-2-0.2-0.7-0.4-1.3-0.6-2-0.2-0.7-0.4-1.3-0.7-2-0.2-0.7-0.5-1.3-0.7-1.9-0.2-0.6-0.5-1.3-0.7-1.9-0.3-0.6-0.5-1.3-0.8-1.9-0.3-0.6-0.5-1.3-0.8-1.9-0.3-0.6-0.6-1.3-0.9-1.9-0.3-0.6-0.6-1.2-0.9-1.9-0.3-0.6-0.6-1.2-0.9-1.9-0.3-0.6-0.6-1.2-1-1.8-0.3-0.6-0.7-1.2-1-1.8-0.3-0.6-0.7-1.2-1-1.8-12.2-20.9-31-38.1-53.2-47.6-11.1-4.9-23-9-35.2-7.8zM501 415.3c-1.2 1.6-1.8 3.4-1.7 5.4 0.2 9.6-1.8 18.9-3.9 28.2-3.9 16.9-17.4 30.9-33.8 36.1-8.3 3.4-17.4 2.4-26.1 2.1l-0.7-0.1-0.7-0.1-0.7-0.1-0.7-0.1-0.7-0.1-0.7-0.1-0.7-0.1-0.7-0.1-0.7-0.1c-0.5-0.1-0.9-0.2-1.4-0.3-7.8-1.7-15.4-4.2-22.6-7.6l-0.6-0.3-0.6-0.3-0.6-0.3-0.6-0.3-0.6-0.3-0.6-0.3-0.6-0.3-0.6-0.3-0.6-0.3-0.6-0.4-0.6-0.4-0.6-0.4-0.6-0.4-0.6-0.4-0.6-0.4-0.6-0.4-0.6-0.4-0.6-0.4-0.6-0.4c-2.5 4.9-2.8 10.6-0.9 15.8 2.2 4.6 7 7.3 11.4 9.6 12.7 5.6 26.6 7.7 40.2 9.7 15.3-2.8 31.6-4.7 44.6-14.1 8.5-5.3 13.2-14.3 19.3-21.9 2-2.5 5.3-2.9 8.3-2.2 4.8 4.1 8 9.7 11.8 14.7 11.1 13.2 28.1 19.9 44.9 21.5 10.8 2.4 21.9 0.1 32.7-1.7 10.7-2.9 22.7-6.1 29.4-15.8 3.4-4.6 1.5-10.4 0.5-15.5-10.7 4.7-20.9 11-32.5 13.5-17.5 4.9-37.7 3.6-52.7-7.5-14.1-10.1-19.8-28-21.5-44.6-0.1-6.1-1.6-11.9-3-17.7-8.5-0.2-16.9-1-25.3-0.1z m-12-82.4c-3.7 1.3-7.6 2.8-10.2 5.9-2.4 2.8-1.5 7 0.7 9.6 9.1 13.3 18.3 26.5 28.3 39.1 4.2 0.9 8.6 0.5 12.8 0.1 4.5-4.5 7.4-10.2 11.3-15.2 5.9-8.7 13.1-16.6 18.7-25.5 3.4-8.2-6.4-13.8-13.3-14.5-13.7-0.2-27.5 0-41.2-0.1-2.4 0.1-4.8-0.1-7.1 0.6z" fill="" p-id="3462"></path></svg>