<?xml version="1.0" standalone="no"?><!DOCTYPE svg PUBLIC "-//W3C//DTD SVG 1.1//EN" "http://www.w3.org/Graphics/SVG/1.1/DTD/svg11.dtd"><svg t="1596871466983" class="icon" viewBox="0 0 1024 1024" version="1.1" xmlns="http://www.w3.org/2000/svg" p-id="3977" xmlns:xlink="http://www.w3.org/1999/xlink" width="200" height="200"><defs><style type="text/css"></style></defs><path d="M618.7 316.5c85.3-16.3 171-31.2 255.9-49.2 63.9-13.6 89.5 6.2 86.1 74.4-4.7 94.4-6.3 189.6 0.4 283.8 5.6 78.5-26.5 104.7-99.9 115-157.2 22.2-310 62.6-451.5 138.1h-22.8c-43.7-57.8-33.8-121.3-20.1-185.1 4.5-11.3 11.8-20.8 21.5-28.1 75.2-24.4 136 33.8 215.5 38.1 9.9-119.2 3.3-237.9 1.9-356.6 0.8-11.7 5.1-21.8 13-30.4z" fill="#4FA0FE" p-id="3978"></path><path d="M618.7 316.5c-3.6 3.8-5.5 8.4-5.8 13.6C471.2 398.3 399.8 513.2 388.5 668l-1.6 6.1c-115.7 18.7-223-1-319.7-69.5 0-121.8 6.2-244-2.2-365.2-5.5-79 15.4-108.8 93.6-91.5 156.4 47.9 322.3 70 460.1 168.6z" fill="#01C558" p-id="3979"></path><path d="M388.5 668c-0.1-11.3-0.3-22.6-0.3-33.9 0-228.6 0-228.6 224.8-303.9 54.8 126.3 14.2 258.5 22.9 387.7C639 766 602.3 743.6 580 736c-64.1-21.9-127.7-45.2-191.5-68z" fill="#358AC4" p-id="3980"></path></svg>