<?xml version="1.0" standalone="no"?><!DOCTYPE svg PUBLIC "-//W3C//DTD SVG 1.1//EN" "http://www.w3.org/Graphics/SVG/1.1/DTD/svg11.dtd"><svg t="1596872118144" class="icon" viewBox="0 0 1024 1024" version="1.1" xmlns="http://www.w3.org/2000/svg" p-id="5704" xmlns:xlink="http://www.w3.org/1999/xlink" width="200" height="200"><defs><style type="text/css"></style></defs><path d="M41.2672 272.6912c-0.512 0-1.024 0-1.4336-0.1024-8.192-0.8192-14.1312-8.0896-13.4144-16.2816 5.0176-50.9952 33.792-89.6 85.4016-114.9952 42.5984-20.8896 93.184-29.4912 137.1136-35.1232 129.8432-16.6912 280.576-18.432 448.1024-5.2224l2.3552 0.2048c78.2336 6.144 166.912 13.1072 237.568 56.832 37.2736 23.04 61.3376 58.9824 64.2048 96.0512 0.6144 8.192-5.5296 15.36-13.7216 15.9744-8.192 0.6144-15.36-5.5296-15.9744-13.6192-2.1504-27.648-20.8896-54.9888-50.176-73.1136-64.512-39.936-149.2992-46.592-224.1536-52.4288l-2.3552-0.2048c-165.376-13.0048-314.0608-11.3664-441.856 5.12-92.3648 11.8784-188.0064 35.84-196.608 123.4944-1.024 7.68-7.4752 13.4144-15.0528 13.4144z m508.2112 659.8656c-67.072 0-137.728-2.8672-211.6608-8.704l-2.3552-0.2048c-78.2336-6.144-166.912-13.1072-237.568-56.832-37.2736-23.04-61.3376-58.9824-64.2048-96.0512-0.6144-8.192 5.5296-15.36 13.7216-15.9744 8.192-0.6144 15.36 5.4272 15.9744 13.6192 2.1504 27.648 20.8896 54.9888 50.176 73.1136 64.512 39.936 149.2992 46.592 224.1536 52.5312l2.3552 0.2048c165.376 13.0048 314.0608 11.3664 441.856-5.12 92.3648-11.8784 188.0064-35.84 196.608-123.4944 0.8192-8.192 8.0896-14.1312 16.2816-13.312 8.192 0.8192 14.1312 8.0896 13.4144 16.2816-5.0176 50.9952-33.792 89.6-85.4016 114.9952-42.5984 20.8896-93.184 29.4912-137.1136 35.1232-72.3968 9.216-151.4496 13.824-236.2368 13.824zM43.1104 416.6656c-8.192 0-14.9504-6.656-14.9504-14.848v-99.1232c0-8.192 6.656-14.848 14.9504-14.848 8.192 0 14.9504 6.656 14.9504 14.848v99.1232c0 8.192-6.656 14.848-14.9504 14.848zM42.7008 722.944c-8.192 0-14.848-6.5536-14.9504-14.7456l-1.4336-249.2416c0-8.192 6.5536-14.9504 14.848-14.9504h0.1024c8.192 0 14.848 6.5536 14.9504 14.7456l1.4336 249.2416c0 8.2944-6.656 14.9504-14.9504 14.9504z m954.1632 11.3664c-8.192 0-14.9504-6.656-14.9504-14.848V309.248c0-8.192 6.656-14.848 14.9504-14.848 8.192 0 14.9504 6.656 14.9504 14.848v410.2144c-0.1024 8.192-6.7584 14.848-14.9504 14.848z m0 0" p-id="5705"></path><path d="M548.0448 780.4928c-8.192 0-14.848-6.656-14.9504-14.848l-2.3552-480.5632c0-8.192 6.5536-14.848 14.848-14.9504h0.1024c8.192 0 14.848 6.656 14.9504 14.848l2.3552 480.5632c0 8.192-6.656 14.9504-14.9504 14.9504zM791.04 797.184c-7.9872 0-14.6432-6.3488-14.848-14.336l-7.68-228.0448-116.5312-241.5616c-3.584-7.3728-0.4096-16.2816 6.9632-19.8656 7.3728-3.584 16.2816-0.4096 19.8656 6.9632L787.2512 525.312l96.5632-216.064c3.3792-7.4752 12.1856-10.8544 19.6608-7.5776 7.4752 3.3792 10.8544 12.1856 7.5776 19.6608l-102.0928 228.352-3.072 232.7552c-0.1024 8.0896-6.656 14.5408-14.7456 14.6432 0 0.1024-0.1024 0.1024-0.1024 0.1024zM346.7264 272.1792H222.208c-37.7856 0-68.608 30.72-68.608 68.5056v350.9248c0 37.7856 30.8224 68.4032 68.608 68.4032h124.5184c37.7856 0 68.608-30.72 68.608-68.4032V340.5824c0-37.7856-30.8224-68.4032-68.608-68.4032z m38.7072 419.328c0 21.2992-17.408 38.7072-38.8096 38.7072H222.208c-21.4016 0-38.8096-17.408-38.8096-38.7072V340.5824c0-21.2992 17.408-38.7072 38.8096-38.7072h124.5184c21.4016 0 38.8096 17.408 38.8096 38.7072v350.9248z" fill="#FA1500" p-id="5706"></path><path d="M410.3168 775.68c-10.4448 0-22.3232-9.216-42.0864-32.1536-5.0176-5.8368-4.8128-14.4384 0.512-19.968s13.9264-6.144 19.968-1.4336l33.0752 25.7024c4.5056 3.4816 6.656 9.3184 5.4272 14.9504-1.3312 6.0416-6.144 10.8544-12.288 12.3904-1.6384 0.4096-3.072 0.512-4.608 0.512z m0 0" fill="#FA1500" p-id="5707"></path></svg>