<?xml version="1.0" standalone="no"?><!DOCTYPE svg PUBLIC "-//W3C//DTD SVG 1.1//EN" "http://www.w3.org/Graphics/SVG/1.1/DTD/svg11.dtd"><svg t="1599127321757" class="icon" viewBox="0 0 1024 1024" version="1.1" xmlns="http://www.w3.org/2000/svg" p-id="4292" xmlns:xlink="http://www.w3.org/1999/xlink" width="48" height="48"><defs><style type="text/css"></style></defs><path d="M823.292209 0H196.080362A196.637883 196.637883 0 0 0 0.055752 196.024609v560.588011a324.923613 324.923613 0 0 1 157.778625-125.163608 222.618392 222.618392 0 0 1-110.389285-192.344967 223.008657 223.008657 0 0 1 223.008657-223.008657 223.008657 223.008657 0 0 1 223.008656 223.008657 222.618392 222.618392 0 0 1-110.389285 192.344967 324.812109 324.812109 0 0 1 190.895411 190.059128l59.599063-234.93962a27.876082 27.876082 0 0 1 33.618555-20.405292 27.876082 27.876082 0 0 1 19.847771 33.451298l-4.125661 16.112376-92.548592 364.730658c-0.669026 4.90619-1.393804 9.812381-2.341591 14.662819h-1.393804l-7.247782 28.60086h177.291883a267.610388 267.610388 0 0 0 267.331627-266.662601V200.484782a201.042304 201.042304 0 0 0-200.707791-200.484782z m32.670768 410.670442h-149.638809a27.876082 27.876082 0 0 1-27.541569-27.54157 27.876082 27.876082 0 0 1 27.541569-27.541569h149.638809a27.876082 27.876082 0 0 1 27.541569 27.541569 27.876082 27.876082 0 0 1-27.31856 27.54157z m0-149.861818h-276.474982A27.876082 27.876082 0 0 1 551.946426 233.267055a27.876082 27.876082 0 0 1 27.541569-27.541569h276.474982a27.876082 27.876082 0 0 1 27.541569 27.541569 27.876082 27.876082 0 0 1-27.31856 27.597321z" fill="#f4ea2a" p-id="4293"></path></svg>