<?xml version="1.0" standalone="no"?><!DOCTYPE svg PUBLIC "-//W3C//DTD SVG 1.1//EN" "http://www.w3.org/Graphics/SVG/1.1/DTD/svg11.dtd"><svg t="1599112726781" class="icon" viewBox="0 0 1024 1024" version="1.1" xmlns="http://www.w3.org/2000/svg" p-id="11019" xmlns:xlink="http://www.w3.org/1999/xlink" width="48" height="48"><defs><style type="text/css"></style></defs><path d="M902.9 283.9c-59.4 0-118.5-0.2-177.7-0.2-10.3 0-10.3 0-10.3 10.1 0 59.9 0.2 119.8-0.2 180 0 6.1 1.7 7.5 7.7 7.5 59.3-0.1 118.5-0.1 177.8-0.1 10.3 0 12.7 2.3 12.7 12.7 0 111.8 0.2 223.7 0 335.3-0.2 22.5-7.7 42.8-22.5 59.9-1.9 2-3.6 4.2-5.2 6.5l-0.1 0.2c-15.6 13.5-33 23-53.9 25-5.8 0.6-11.7 0.6-17.3 0.6-85.5 0.2-171.2 0.2-257 0.2-11.7 0-13.2-1.3-13.2-12.2V503.1c0-3.8 0-7.9 0.2-11.7 0.2-7.2 3-10 10.3-10 20.3-0.1 40.7-0.4 61 0 6.7 0.2 8.5-1.4 8.5-8.2-0.3-110.2-0.3-220.3-0.3-330.6 0-17.1 0-17.1 17.5-17.1 21 0 42-0.2 63 0 9.8 0 11.7 2 11.7 12-0.2 15.6-0.2 31.3-0.6 47.2-0.2 5.3 0.9 7.6 7.2 7.6 60-0.3 120.4-0.3 180.4-0.3 11.8 0 13.3 1.6 13.3 13v66c-0.1 10.6-2.2 12.9-13 12.9zM643 572.4c-6.7 0-8.2 2.2-7.9 8.2 0.2 40.1 0 80.6 0 120.8 0 40.6 0.2 81 0 121.5 0 5.4 1.3 7.2 7 7.2h171.2c5.4 0 6.9-1.8 6.7-6.9 0-80.9 0-161.8 0.2-242.7 0-6-1.5-8-7.7-7.9-56.5 0.2-113.2 0.2-169.5-0.2zM490.7 916.8c-2.7 3.4-6.2 4.3-10.1 4.3-0.9 0-1.9 0-2.8-0.1-72-8.6-129-43-173-100.2-5.4-7.2-5.4-7.2-10.6-0.3-3 3.9-5.9 7.8-9 11.3-9.4 11.2-19.7 21.3-30.3 31.4-0.6 0.6-1.3 1.2-1.8 1.9V864.8c-1.4 0.2-2.4 1-3 2.3l-0.1 0.2c-6.3 3.9-12 8.4-17.3 13.2l-1.7 1.3v-0.1c-7.3 3.4-14.2 7.7-20.8 12.5-4.4 2-9.3 4-13.6 6.2-17.2 8.3-35.6 13-53.8 17.9l-2.8 0.5c-6.7 0.7-13.3 1.7-19.9 2.2-8 0.8-11.6-2.4-11.6-10.6-0.2-24.2 0-48.3-0.2-72.5 0-5.9 2.6-8.2 8.1-9.3 6.4-1 13-2.2 19.3-4.9 1-0.3 1.9-0.8 2.8-1.1 8.6-1.7 16.6-5 23.8-9.8 7.5-2.4 14.3-6.6 20.2-12 0.5-0.3 1.1-0.7 1.9-1 4.2-2.5 8.3-5.3 11-9.3 1 0 1.5-0.3 1.5-1.3 4.6-2.2 7.7-5.9 10.7-9.8 0.3-0.1 0.4-0.1 0.4-0.4 0.1 0 0.1-0.2 0.1-0.3 0.6-0.5 1.1-1.3 1.7-1.9v0.2c3.5-2.5 6.3-5.7 8.3-9.7 1.1-1.2 2.2-2.2 3.3-3.5 22.1-29.4 32.4-63.1 32.4-99.9 0.2-127 0-254 0-381 0-10.3 2-12.3 12.2-12.3h67.5c11.6 0 13.2 1.6 13.2 13.1v299.9c0 28.9-0.3 57.8 0.3 86.7 0.3 20.7 3 41.2 11.8 60.3l0.5 1.6c2.3 8.2 5.8 15.6 10.9 22.5 1.7 5.2 4.6 9.3 8.3 13l0.9 1c1.1 3.2 3 5.7 6 7.6-0.2 0 0 0.2 0 0.4 0 0 0.2 0.2 0.3 0.2 2.2 4 5.3 7.5 9.3 10.1l0.3-0.6-0.2 0.6c2.6 3.5 5.6 6.5 9.7 8.3 1.4 2.7 3.8 4.6 7 5.5 5.1 5.2 11.3 8.7 18.1 11.2 3.3 2.9 7 4.4 11.2 5.4 5.1 3 10.9 4.8 16.6 5.8l0.4 0.3h0.2l0.2-0.3c1.1 1.2 2.4 1.2 4 1.2l0.2-0.1c3.3 2.3 7.3 2.3 11 3.5 5.7 1.4 12 0.6 17.1 4.2v0.1h0.2c0 3.9 0.3 8 0.3 11.9 0.1 21.9 0.1 44.1 0.3 66.1 0 1.3 0 2.8-0.2 4.1-0.3 0.7-0.5 1.8-0.7 2.6z m-11.6-200.1c-21.6 0-43.2-0.2-64.6-0.2-13.7 0-15-1-15-15V227.3c0-9.2 0-9.2-9.4-9.2H211.7c-10.5 0-10.5 0-10.5 10.5v474.2c0 12.2-1.5 13.6-13.5 13.6-22.5 0.2-44.9 0.2-67.5 0.2-9.3 0-11.7-2.5-11.7-11.9-0.2-15.1-0.2-30.3-0.2-45.3 0-145.4 0.2-290.6 0-435.9 0-19.3 3.8-37.2 13.8-53.7 7.3-12.1 17.6-21.5 28.4-30.1l0.6-0.2c19.3-11.7 40.3-14.5 62.6-14.3 87.6 0.3 175.4 0.2 263.1 0.2 13.3 0 14.4 0.9 14.4 14.2 0 188.4-0.3 376.8-0.3 565.2 0 9.6-2.4 11.9-11.8 11.9z" p-id="11020" fill="#1296db"></path></svg>