<?xml version="1.0" standalone="no"?><!DOCTYPE svg PUBLIC "-//W3C//DTD SVG 1.1//EN" "http://www.w3.org/Graphics/SVG/1.1/DTD/svg11.dtd"><svg t="1596819989537" class="icon" viewBox="0 0 1024 1024" version="1.1" xmlns="http://www.w3.org/2000/svg" p-id="13286" xmlns:xlink="http://www.w3.org/1999/xlink" width="200" height="200"><defs><style type="text/css"></style></defs><path d="M886.690909 121.018182H137.309091C60.509091 121.018182 0 181.527273 0 253.672727V768c0 74.472727 60.509091 134.981818 137.309091 134.981818h749.381818c76.8 0 137.309091-60.509091 137.309091-134.981818V253.672727c0-72.145455-60.509091-132.654545-137.309091-132.654545z m81.454546 649.309091c0 44.218182-34.909091 79.127273-79.127273 79.127272H137.309091c-44.218182 0-79.127273-34.909091-79.127273-79.127272V253.672727v-9.309091l456.145455 351.418182 386.327272-302.545454-34.90909-44.218182-351.418182 274.618182L86.109091 195.490909c13.963636-11.636364 30.254545-18.618182 51.2-18.618182h749.381818c44.218182 0 79.127273 34.909091 79.127273 79.127273l2.327273 514.327273z" fill="#018BE6" p-id="13287"></path></svg>