<?xml version="1.0" standalone="no"?><!DOCTYPE svg PUBLIC "-//W3C//DTD SVG 1.1//EN" "http://www.w3.org/Graphics/SVG/1.1/DTD/svg11.dtd"><svg t="1596820028801" class="icon" viewBox="0 0 1024 1024" version="1.1" xmlns="http://www.w3.org/2000/svg" p-id="14080" xmlns:xlink="http://www.w3.org/1999/xlink" width="200" height="200"><defs><style type="text/css"></style></defs><path d="M0 223.9965c0 123.711583 100.288529 224.000113 224.000113 224.000113s223.9965-100.288529 223.9965-224.000113S347.708084 0 224.000113 0C100.284917 0 0 100.284917 0 223.9965z" fill="#54B4C1" p-id="14081"></path><path d="M575.999774 223.9965c0 123.711583 100.288529 224.000113 224.000113 224.000113s224.000113-100.288529 224.000113-224.000113S923.711471 0 799.999887 0s-224.000113 100.284917-224.000113 223.9965z" fill="#98CC8C" p-id="14082"></path><path d="M0 799.999887c0 123.711583 100.288529 224.000113 224.000113 224.000113s223.9965-100.288529 223.9965-224.000113-100.288529-224.000113-223.9965-224.000113c-123.715196 0-224.000113 100.284917-224.000113 224.000113z" fill="#E8CE85" p-id="14083"></path><path d="M575.999774 799.999887c0 123.711583 100.288529 224.000113 224.000113 224.000113s224.000113-100.288529 224.000113-224.000113-100.288529-224.000113-224.000113-224.000113-224.000113 100.284917-224.000113 224.000113z" fill="#EF8F72" p-id="14084"></path></svg>